<svg id="Слой_1" data-name="Слой 1" xmlns="http://www.w3.org/2000/svg" viewBox="0 0 816.98 980.51"><defs><style>.cls-1{fill:none;stroke:#80ff55;stroke-miterlimit:10;stroke-width:13px;}.cls-2{fill:#00aa2f;}.cls-3{fill:#80ff55;}.cls-4{fill:#003f0e;}.cls-5{fill:#f2f2f2;}</style></defs><title>poiredb_icon</title><polygon class="cls-1" points="810.48 731.59 408.49 972.92 6.5 731.59 6.5 248.92 408.49 7.58 810.48 248.92 810.48 731.59"/><polygon class="cls-2" points="741.06 688.41 415.35 891.99 89.65 688.41 89.65 281.26 415.35 77.68 741.06 281.26 741.06 688.41"/><polygon class="cls-3" points="733.4 693.4 407.69 896.98 81.98 693.4 81.98 286.25 407.69 82.67 733.4 286.25 733.4 693.4"/><path class="cls-4" d="M517.54,376.71q14.54-3.78,25.45,7.56,7.86,8.21-.61,13.23-15.76,6.94-29.08,32.76T493.61,479.4q-6.36,23.31-16.05,64.26-2.43,10.71-3.64,15.74,64.21,22.07,107.23-6T630.83,463q6-52.92-26.66-83.79t-82.39-33.38a162.47,162.47,0,0,0-70,11.65Q418.18,371.06,398.5,394a103.35,103.35,0,0,0-24.24,52.29q-4.54,29.28,17.27,58.9,4.85,10.08-8.18,19.84t-21.51,2.84q-33.93-29-33.92-76.23,0-42.19,27-76.23t70.27-52q43.31-18,93.6-17.32a207.71,207.71,0,0,1,65.74,11.65A171.92,171.92,0,0,1,639.31,349q23.63,20.16,35.44,51.34t6.37,69q-7.27,56.07-40,91.34t-77.85,41.58q-45.13,6.32-97.23-11.34-4.86,19.53-13,56.07t-13.93,58.27q-5.77,21.74-11.82,33.07-4.25,7.56-17,8.19t-21.81-5q-9.09-5.67-5.45-14.48,9.68-19.53,23-78.75t25.44-114a470.38,470.38,0,0,1,35.14-102.69Q489.68,383.66,517.54,376.71Z" transform="translate(-91.5 -10.06)"/><path class="cls-5" d="M503.11,390.93q14.53-3.78,25.44,7.56,7.88,8.2-.6,13.23-15.76,6.94-29.08,32.76t-19.69,49.14q-6.36,23.31-16.06,64.26-2.43,10.71-3.63,15.74,64.2,22.07,107.23-6t49.68-90.4q6-52.92-26.66-83.79t-82.39-33.38a162.51,162.51,0,0,0-70,11.65q-33.62,13.56-53.31,36.54a103.35,103.35,0,0,0-24.23,52.28q-4.54,29.29,17.26,58.91,4.85,10.08-8.17,19.84t-21.51,2.84q-33.95-29-33.93-76.23,0-42.19,27-76.23t70.28-52q43.3-18,93.6-17.32A207.64,207.64,0,0,1,570.05,332a171.67,171.67,0,0,1,54.83,31.19q23.63,20.16,35.44,51.34t6.36,69q-7.27,56.07-40,91.34t-77.85,41.58q-45.15,6.31-97.24-11.34-4.86,19.53-13,56.07t-13.94,58.27q-5.76,21.74-11.81,33.07-4.24,7.56-17,8.19t-21.82-5Q365,750,368.61,741.2q9.69-19.53,23-78.75t25.45-114a469.42,469.42,0,0,1,35.14-102.68Q475.23,397.88,503.11,390.93Z" transform="translate(-91.5 -10.06)"/></svg>